<?xml version="1.0" encoding="UTF-8"?>
<svg width="128px" height="128px" viewBox="0 0 128 128" xmlns="http://www.w3.org/2000/svg" xmlns:xlink="http://www.w3.org/1999/xlink" version="1.1">
 <!-- Generated by Pixelmator Pro 1.5.5 -->
 <path id="Ghost" d="M76.083 117 L64.277 111.528 53.201 116.897 40.078 111.057 26 116.997 26 49.277 C26 28.138 43.137 11 64.277 11 85.416 11 102.553 28.138 102.553 49.277 L102.553 116.997 89.637 111.111 76.083 117 Z M46.61 63.999 C51.488 63.999 55.443 60.044 55.443 55.166 55.443 50.288 51.488 46.333 46.61 46.333 41.732 46.333 37.777 50.288 37.777 55.166 37.777 60.044 41.732 63.999 46.61 63.999 Z M81.943 63.999 C86.821 63.999 90.776 60.044 90.776 55.166 90.776 50.288 86.821 46.333 81.943 46.333 77.064 46.333 73.11 50.288 73.11 55.166 73.11 60.044 77.064 63.999 81.943 63.999 Z" fill="#000000" fill-opacity="1" stroke="none"/>
</svg>
