<?xml version="1.0" encoding="UTF-8"?>
<svg width="128px" height="128px" viewBox="0 0 128 128" xmlns="http://www.w3.org/2000/svg" xmlns:xlink="http://www.w3.org/1999/xlink" version="1.1">
 <!-- Generated by Pixelmator Pro 1.5.5 -->
 <path id="Ghost" d="M76.081 117 L64.275 111.528 53.199 116.897 40.076 111.057 26 116.997 26 49.277 C26 28.138 43.135 11 64.275 11 85.414 11 102.551 28.138 102.551 49.277 L102.551 116.997 89.635 111.111 Z M46.608 58.999 C51.486 58.999 55.441 60.044 55.441 55.166 55.441 50.288 51.876 51 46.999 51 42.12 51 37.775 50.288 37.775 55.166 37.775 60.044 41.73 58.999 46.608 58.999 Z M81.941 63.999 C86.819 63.999 91.774 60.044 91.774 55.166 91.774 50.288 86.819 46.333 81.941 46.333 77.062 46.333 72.108 50.288 72.108 55.166 72.108 60.044 77.062 63.999 81.941 63.999 Z" fill="#000000" fill-opacity="1" stroke="none"/>
</svg>
